<?xml version="1.0" encoding="UTF-8"?>
<svg version="1.1" xmlns="http://www.w3.org/2000/svg" width="328" height="328">
<path d="M0 0 C0.97832794 -0.00139984 1.95665588 -0.00279968 2.96463013 -0.00424194 C23.25108221 0.01964182 42.15966808 2.08844474 60.875 10.4375 C62.43703792 11.0012819 63.99953252 11.56380027 65.5625 12.125 C78.40881389 17.32220366 90.07244301 24.85127309 100.875 33.4375 C103.09211047 35.05025793 105.31500531 36.65384525 107.546875 38.24609375 C108.20429687 38.83583984 108.20429687 38.83583984 108.875 39.4375 C108.875 40.0975 108.875 40.7575 108.875 41.4375 C109.7103125 41.7778125 109.7103125 41.7778125 110.5625 42.125 C113.53659588 43.81300036 115.59508865 45.90426517 117.875 48.4375 C117.875 49.0975 117.875 49.7575 117.875 50.4375 C118.535 50.4375 119.195 50.4375 119.875 50.4375 C121.68899907 52.52525349 123.38585952 54.61821821 125.0625 56.8125 C125.80342896 57.7710791 125.80342896 57.7710791 126.55932617 58.74902344 C130.49344954 63.86948573 134.3131062 69.0494576 137.875 74.4375 C138.36226563 75.16453125 138.84953125 75.8915625 139.3515625 76.640625 C152.475075 97.2733131 160.9337526 124.16248765 161.078125 148.6171875 C161.08382507 149.38821808 161.08952515 150.15924866 161.09539795 150.9536438 C161.10479958 152.5823634 161.11136256 154.21110161 161.11523438 155.83984375 C161.12483687 158.27119547 161.15586242 160.70166225 161.1875 163.1328125 C161.28076701 176.84707192 159.62846012 190.05584741 155.5 203.1875 C155.28504883 203.88810547 155.07009766 204.58871094 154.84863281 205.31054688 C149.24232901 223.26708782 141.06358584 239.34113602 129.875 254.4375 C129.25625 255.28054688 128.6375 256.12359375 128 256.9921875 C124.71296871 261.35043881 121.21924345 265.27020184 117.2578125 269.02734375 C115.76127875 270.40917147 115.76127875 270.40917147 114.875 272.4375 C114.215 272.4375 113.555 272.4375 112.875 272.4375 C112.875 273.0975 112.875 273.7575 112.875 274.4375 C95.56087329 293.3647441 67.96642057 306.32755834 43.75 313.1875 C43.0590625 313.38601563 42.368125 313.58453125 41.65625 313.7890625 C29.41635008 317.11067103 17.34528484 317.78506936 4.73828125 317.75317383 C2.14279807 317.75002162 -0.45153231 317.77353287 -3.046875 317.79882812 C-45.29554075 317.9578123 -83.36142486 299.55603811 -113.375 270.4375 C-143.27001872 239.59842805 -158.56322908 198.70543803 -158.4296875 156.06811523 C-157.87013604 128.37300804 -149.99717839 101.30512006 -136.125 77.4375 C-135.76535156 76.81746094 -135.40570313 76.19742188 -135.03515625 75.55859375 C-129.39398987 65.99134087 -122.63789299 57.59750678 -115.125 49.4375 C-114.66335449 48.93589355 -114.20170898 48.43428711 -113.72607422 47.91748047 C-106.82134884 40.51511722 -99.29905615 34.34372393 -91.125 28.4375 C-90.16980469 27.73753906 -89.21460937 27.03757812 -88.23046875 26.31640625 C-80.6230521 20.97768567 -72.557214 17.05911781 -64.08935547 13.30859375 C-62.38753809 12.55392256 -60.69482045 11.77879403 -59.00390625 11 C-53.15537415 8.4042576 -47.21129649 6.48048434 -41.0625 4.75 C-40.34263916 4.54737549 -39.62277832 4.34475098 -38.88110352 4.13598633 C-36.63717938 3.52980058 -34.38627688 2.97520784 -32.125 2.4375 C-31.00399902 2.15386597 -31.00399902 2.15386597 -29.86035156 1.86450195 C-20.05885995 -0.29178751 -9.98454664 -0.0013584 0 0 Z " fill="#161516" transform="translate(161.125,6.5625)"/>
<path d="M0 0 C-9.26901234 10.87595662 -19.00565134 21.12283709 -29.1862793 31.14941406 C-32.6736339 34.59889792 -36.09584965 38.04195275 -39.27734375 41.77734375 C-44.43743842 47.78624635 -50.1822953 53.24969407 -55.8125 58.8125 C-58.07190737 61.04527762 -60.32794419 63.28138417 -62.58203125 65.51953125 C-63.09659378 66.02579544 -63.61115631 66.53205963 -64.14131165 67.05366516 C-66.38489561 69.28173749 -68.23764256 71.35646384 -70 74 C-70.66 74 -71.32 74 -72 74 C-66.1388305 81.56170224 -60.20218019 89.03066152 -53.99145508 96.30883789 C-48.83741036 102.34874843 -43.83625003 108.51080033 -38.828125 114.671875 C-34.74723086 119.67892952 -30.62173508 124.64185679 -26.4375 129.5625 C-22.63231023 134.04076529 -18.90137243 138.56416251 -15.2578125 143.17578125 C-13.39702596 145.5033741 -11.51468154 147.8079258 -9.6171875 150.10546875 C-9.02147949 150.82951904 -8.42577148 151.55356934 -7.81201172 152.29956055 C-6.61694769 153.75080173 -5.41812965 155.19896081 -4.21533203 156.64379883 C-3.66989746 157.30790771 -3.12446289 157.9720166 -2.5625 158.65625 C-1.82193359 159.55053711 -1.82193359 159.55053711 -1.06640625 160.46289062 C0 162 0 162 0 164 C-6.5831209 164.20321332 -13.16543096 164.34308869 -19.75097656 164.43945312 C-21.98989076 164.47963046 -24.22859575 164.53418502 -26.46679688 164.60351562 C-29.68932685 164.70082115 -32.90907924 164.74598331 -36.1328125 164.78125 C-37.12991241 164.82254028 -38.12701233 164.86383057 -39.15432739 164.90637207 C-45.98787652 164.91076235 -45.98787652 164.91076235 -48.9203949 162.27192688 C-50.44656292 160.24491357 -51.72800291 158.19254203 -53 156 C-54.58762009 154.0489184 -56.19083098 152.11037455 -57.8125 150.1875 C-60.98131856 146.41427625 -64.13451389 142.62998577 -67.25 138.8125 C-77.06823848 126.79122922 -86.93256537 114.81382635 -97 103 C-102.81478056 107.83001933 -108.16932653 113.01906267 -113.5 118.375 C-114.31597656 119.18710938 -115.13195312 119.99921875 -115.97265625 120.8359375 C-119.57704157 124.44610835 -123.11383577 128.06647527 -126.43359375 131.94140625 C-130.86186857 137.09122106 -135.72887651 141.79690781 -140.5625 146.5625 C-142.39957676 148.37382937 -144.23427207 150.18757768 -146.06640625 152.00390625 C-146.93330078 152.8554126 -147.80019531 153.70691895 -148.69335938 154.58422852 C-150.69426789 156.67980322 -152.28472391 158.76279331 -153.94140625 161.125 C-155.78464951 163.33918165 -156.66215998 163.92793577 -159.5168457 164.53686523 C-162.50325947 164.68893121 -165.39033883 164.61272849 -168.375 164.4375 C-169.39722656 164.40591797 -170.41945313 164.37433594 -171.47265625 164.34179688 C-173.98475434 164.25962544 -176.49086534 164.14484348 -179 164 C-174.7687177 158.93013576 -170.31622288 154.23003155 -165.58789062 149.62695312 C-162.89734702 146.97872475 -160.35147046 144.27623503 -157.90234375 141.40234375 C-152.25086387 134.86813581 -145.96718235 128.9124981 -139.82470703 122.84521484 C-134.21906691 117.30206059 -128.67426387 111.77439895 -123.56054688 105.765625 C-120.35228522 102.13575199 -116.75039142 98.86429188 -113.19140625 95.58203125 C-111.28838014 93.8045024 -111.28838014 93.8045024 -109 91 C-109.44388233 86.69779618 -112.24217183 84.05355962 -115 80.9375 C-116.00857777 79.77279767 -117.01637925 78.60742268 -118.0234375 77.44140625 C-118.52713867 76.86148926 -119.03083984 76.28157227 -119.54980469 75.68408203 C-121.61790596 73.2824385 -123.62369796 70.83242918 -125.625 68.375 C-126.35589844 67.4778125 -127.08679688 66.580625 -127.83984375 65.65625 C-128.55269531 64.7796875 -129.26554687 63.903125 -130 63 C-135.83275042 55.85515638 -141.69150668 48.73226721 -147.56079102 41.61743164 C-152.1471996 36.05142568 -156.68836095 30.45000971 -161.21875 24.83837891 C-165.4664925 19.60062992 -169.83930012 14.47835243 -174.30712891 9.42700195 C-176.46822939 6.95278958 -177.9492973 5.1521081 -179 2 C-172.52790846 1.64208831 -166.05839724 1.39872774 -159.57861328 1.23095703 C-157.38005284 1.16097205 -155.18213425 1.06573625 -152.98583984 0.94384766 C-133.76134371 -0.09555036 -133.76134371 -0.09555036 -128.01098633 4.91943359 C-125.30561313 7.81018446 -123.10456179 10.9485883 -121.03948975 14.31988525 C-119.74673715 16.40934569 -118.24381868 18.26643982 -116.66796875 20.1484375 C-115.83829014 21.22175693 -115.01130382 22.29716492 -114.1875 23.375 C-110.82542061 27.71183016 -107.38774085 31.9357163 -103.73046875 36.02734375 C-100.86854743 39.28980485 -98.15557744 42.6729735 -95.421875 46.04296875 C-93.69922055 48.14627427 -91.96418103 50.23026868 -90.203125 52.30078125 C-89.74204346 52.84508789 -89.28096191 53.38939453 -88.8059082 53.95019531 C-87.49757629 55.49171609 -86.18444795 57.02916214 -84.87109375 58.56640625 C-83 61 -83 61 -83 63 C-81.80609125 62.00766026 -80.62033087 61.00551846 -79.4375 60 C-78.77621094 59.443125 -78.11492187 58.88625 -77.43359375 58.3125 C-75.42813732 56.40683353 -73.67336145 54.50163868 -71.87890625 52.40625 C-66.51601461 46.19090677 -60.58029644 40.53672789 -54.73828125 34.77734375 C-48.85561524 28.94560991 -43.28994683 22.98948658 -38.02050781 16.59960938 C-26.33277746 2.62596765 -18.42848183 -3.13559243 0 0 Z " fill="#D6D4D7" transform="translate(252,82)"/>
<path d="M0 0 C16.43152053 -1.67014428 16.43152053 -1.67014428 22.171875 2.0625 C24.71334227 4.91153338 26.86213991 7.83848682 29 11 C30.50529313 12.84611422 32.02596955 14.67980239 33.5625 16.5 C35.04347736 18.33187095 36.52267961 20.16517859 38 22 C39.39410139 23.70974699 40.7899703 25.41805413 42.1875 27.125 C42.92613281 28.02734375 43.66476563 28.9296875 44.42578125 29.859375 C45.28373574 30.90634706 46.14182018 31.95321263 47 33 C47.52255371 33.63744141 48.04510742 34.27488281 48.58349609 34.93164062 C55.05971943 42.82667667 61.56109421 50.69610008 68.17407227 58.47705078 C71.66416897 62.58856592 75.08939259 66.74901309 78.49609375 70.9296875 C85.76393801 79.8415839 93.04943724 88.73993598 100.5 97.5 C128 129.84057431 128 129.84057431 128 132 C112.19892379 133.91577815 112.19892379 133.91577815 107.16552734 130.90136719 C103.91239153 127.9628539 101.51853845 124.40564157 99.15136719 120.73974609 C97.45118321 118.1707234 95.48254037 115.85470145 93.5 113.5 C92.4171875 112.1696875 92.4171875 112.1696875 91.3125 110.8125 C88.2756723 107.1190609 85.18039045 103.47701514 82.08374023 99.83374023 C79.2045468 96.44045891 76.36795763 93.01732214 73.5625 89.5625 C70.08927334 85.29254751 66.5319418 81.10508232 62.9375 76.9375 C58.87102327 72.2209964 54.91613594 67.44158283 51.0546875 62.5546875 C48.14800755 58.94067858 45.13991503 55.41603007 42.13427734 51.88427734 C39.23683996 48.47511594 36.38247953 45.03638783 33.5625 41.5625 C30.10725086 37.3160668 26.572803 33.14723388 23 29 C16.13538636 21.0247268 9.32336925 13.02122773 3.19140625 4.4609375 C2.04549053 2.85169576 2.04549053 2.85169576 0 2 C0 1.34 0 0.68 0 0 Z " fill="#0F0E0E" transform="translate(99,99)"/>
<path d="M0 0 C8.07168469 -0.31490967 15.48017452 0.53842337 23.375 2.1875 C24.47336182 2.41236084 25.57172363 2.63722168 26.70336914 2.86889648 C34.54969388 4.54032015 41.66592416 6.72821167 49 10 C50.56203792 10.5637819 52.12453252 11.12630027 53.6875 11.6875 C58.70111778 13.70447267 63.39582537 16.27522718 68.125 18.875 C69.2536145 19.49121216 69.2536145 19.49121216 70.4050293 20.11987305 C75.59633533 23.02643552 80.32719004 26.32045966 85 30 C82 30 82 30 79 29 C79.495 29.45375 79.99 29.9075 80.5 30.375 C82 32 82 32 82 34 C77.56541027 32.6062718 75.12621626 30.39417765 72 27 C72.495 25.515 72.495 25.515 73 24 C72.195625 23.855625 71.39125 23.71125 70.5625 23.5625 C68 23 68 23 67 22 C66.42636719 22.19980469 65.85273438 22.39960938 65.26171875 22.60546875 C62.02501488 23.17007512 60.57634211 21.99856616 57.8125 20.3125 C56.93207031 19.79300781 56.05164063 19.27351563 55.14453125 18.73828125 C52.72164398 16.77437445 52.57026726 15.9472051 52 13 C50.71867187 13.22171875 49.43734375 13.4434375 48.1171875 13.671875 C42.60959211 14.27833416 38.31650064 12.97313011 33.125 11.25 C24.37124206 8.53004313 15.7822527 6.78723798 6.7109375 5.54296875 C3 5 3 5 0 4 C0 2.68 0 1.36 0 0 Z " fill="#2D2C2F" transform="translate(173,7)"/>
<path d="M0 0 C0.66 0.33 1.32 0.66 2 1 C-2.26388336 6.63603732 -6.52770278 11.6977386 -11.94140625 16.24609375 C-24.11582007 26.61860192 -32.95818851 39.33077771 -41 53 C-41.52851562 53.87269531 -42.05703125 54.74539062 -42.6015625 55.64453125 C-43.78209501 57.63297008 -44.86549773 59.64011369 -45.9375 61.6875 C-47.93683018 64.89854544 -48.6086432 65.75650251 -52 67 C-52.99 67.99 -52.99 67.99 -54 69 C-50.77879379 51.37284379 -35.75951221 33.77240331 -24 21 C-23.53835449 20.49839355 -23.07670898 19.99678711 -22.60107422 19.47998047 C-15.70598059 12.08794315 -8.1231705 5.95354786 0 0 Z " fill="#424242" transform="translate(70,35)"/>
<path d="M0 0 C2.99254618 1.40191353 5.5954611 3.03367489 8.25 5 C8.95640625 5.515625 9.6628125 6.03125 10.390625 6.5625 C11.18726563 7.2740625 11.18726563 7.2740625 12 8 C12 8.66 12 9.32 12 10 C12.556875 10.226875 13.11375 10.45375 13.6875 10.6875 C16.66159588 12.37550036 18.72008865 14.46676517 21 17 C21 17.66 21 18.32 21 19 C21.66 19 22.32 19 23 19 C24.81399907 21.08775349 26.51085952 23.18071821 28.1875 25.375 C28.68145264 26.01405273 29.17540527 26.65310547 29.68432617 27.31152344 C47.64630625 50.68995693 47.64630625 50.68995693 51 62 C50.67 62.99 50.34 63.98 50 65 C49.67 64.01 49.34 63.02 49 62 C48.34 62 47.68 62 47 62 C46.67 61.34 46.34 60.68 46 60 C45.34 60.66 44.68 61.32 44 62 C43.34 60.02 42.68 58.04 42 56 C43.32 56 44.64 56 46 56 C46 55.34 46 54.68 46 54 C45.23945313 54.08636719 44.47890625 54.17273438 43.6953125 54.26171875 C41 54 41 54 39.3046875 52.20703125 C38.83289063 51.41683594 38.36109375 50.62664062 37.875 49.8125 C37.3696875 48.98878906 36.864375 48.16507813 36.34375 47.31640625 C35.67859375 46.16978516 35.67859375 46.16978516 35 45 C33.36712881 42.23667952 31.84286698 39.80695086 29.8125 37.3125 C28 35 28 35 28 33 C27.34 33 26.68 33 26 33 C25.34 31.68 24.68 30.36 24 29 C24.66 29 25.32 29 26 29 C25.195625 28.05125 24.39125 27.1025 23.5625 26.125 C21.6218985 23.83608541 20.34154378 21.68308757 19 19 C18.34 19 17.68 19 17 19 C17 18.34 17 17.68 17 17 C16.34 17 15.68 17 15 17 C15 16.34 15 15.68 15 15 C13.68 15 12.36 15 11 15 C10.67 13.35 10.34 11.7 10 10 C9.01 9.67 8.02 9.34 7 9 C6.67 8.01 6.34 7.02 6 6 C5.67 6 5.34 6 5 6 C4.01 7.485 4.01 7.485 3 9 C1.68 7.02 0.36 5.04 -1 3 C-0.34 2.67 0.32 2.34 1 2 C0.67 1.34 0.34 0.68 0 0 Z " fill="#3D3D41" transform="translate(258,38)"/>
<path d="M0 0 C3.3428068 1.6714034 3.78991272 5.44406563 4.9375 8.8125 C5.33727051 9.9722937 5.33727051 9.9722937 5.74511719 11.15551758 C11.28186246 27.47942844 13.33802417 43.32802324 13.20581055 60.47973633 C13.18734281 62.95859924 13.18530315 65.43709042 13.18554688 67.91601562 C13.18063687 69.5156282 13.17481082 71.11523828 13.16796875 72.71484375 C13.16685593 73.44412582 13.1657431 74.1734079 13.16459656 74.92478943 C13.12363108 79.38776325 12.72077218 83.60886177 12 88 C11.67 88 11.34 88 11 88 C11 73.48 11 58.96 11 44 C9.515 44.495 9.515 44.495 8 45 C6.98565604 41.00348481 5.98755682 37.00321812 5 33 C4.78730469 32.14535156 4.57460938 31.29070312 4.35546875 30.41015625 C3.35061153 26.18108089 2.77524224 22.38277624 3 18 C3.66 18 4.32 18 5 18 C4.01 14.7 3.02 11.4 2 8 C1.01 8.33 0.02 8.66 -1 9 C-0.67 6.03 -0.34 3.06 0 0 Z " fill="#818081" transform="translate(309,103)"/>
<path d="M0 0 C9.33175289 -0.5338079 17.92550815 1.08718365 27 3 C27 3.66 27 4.32 27 5 C29.475 5.495 29.475 5.495 32 6 C32.495 7.98 32.495 7.98 33 10 C32.13955078 9.83564453 32.13955078 9.83564453 31.26171875 9.66796875 C24.01719156 8.31580358 16.74956696 7.15663262 9.46362305 6.0534668 C8.27506714 5.87037964 8.27506714 5.87037964 7.0625 5.68359375 C6.35222656 5.57587646 5.64195312 5.46815918 4.91015625 5.35717773 C3 5 3 5 0 4 C0 2.68 0 1.36 0 0 Z " fill="#232225" transform="translate(173,7)"/>
<path d="M0 0 C1.9375 0.375 1.9375 0.375 4 1 C5.50606515 4.01213029 5.12160331 7.11282622 5.09765625 10.4140625 C5.0962413 11.14370209 5.09482635 11.87334167 5.09336853 12.62509155 C5.08776531 14.95843585 5.07521235 17.29168464 5.0625 19.625 C5.05748541 21.20572778 5.05292243 22.78645707 5.04882812 24.3671875 C5.03779484 28.24482854 5.02052811 32.12239807 5 36 C4.67 36 4.34 36 4 36 C3.95101563 35.37351563 3.90203125 34.74703125 3.8515625 34.1015625 C3.77679688 33.28429687 3.70203125 32.46703125 3.625 31.625 C3.55539062 30.81289062 3.48578125 30.00078125 3.4140625 29.1640625 C3.17107412 26.79665809 3.17107412 26.79665809 1 25 C0.68115234 22.47802734 0.68115234 22.47802734 0.5859375 19.3359375 C0.54726563 18.21445313 0.50859375 17.09296875 0.46875 15.9375 C0.4378125 14.761875 0.406875 13.58625 0.375 12.375 C0.33632813 11.19164062 0.29765625 10.00828125 0.2578125 8.7890625 C0.16331155 5.85953309 0.07775442 2.93001403 0 0 Z " fill="#2B2B2C" transform="translate(316,146)"/>
<path d="M0 0 C2.99254618 1.40191353 5.5954611 3.03367489 8.25 5 C8.95640625 5.515625 9.6628125 6.03125 10.390625 6.5625 C11.18726563 7.2740625 11.18726563 7.2740625 12 8 C12 8.66 12 9.32 12 10 C12.556875 10.226875 13.11375 10.45375 13.6875 10.6875 C16.66159588 12.37550036 18.72008865 14.46676517 21 17 C21 17.66 21 18.32 21 19 C21.66 19 22.32 19 23 19 C24.5078125 20.53125 24.5078125 20.53125 26.125 22.5 C26.93324219 23.47453125 26.93324219 23.47453125 27.7578125 24.46875 C28.16773438 24.9740625 28.57765625 25.479375 29 26 C28.67 26.66 28.34 27.32 28 28 C20.33333333 21.66666667 20.33333333 21.66666667 19 19 C18.34 19 17.68 19 17 19 C17 18.34 17 17.68 17 17 C16.34 17 15.68 17 15 17 C15 16.34 15 15.68 15 15 C13.68 15 12.36 15 11 15 C10.67 13.35 10.34 11.7 10 10 C9.01 9.67 8.02 9.34 7 9 C6.67 8.01 6.34 7.02 6 6 C5.67 6 5.34 6 5 6 C4.01 7.485 4.01 7.485 3 9 C1.68 7.02 0.36 5.04 -1 3 C-0.34 2.67 0.32 2.34 1 2 C0.67 1.34 0.34 0.68 0 0 Z " fill="#7D7D7F" transform="translate(258,38)"/>
<path d="M0 0 C5.23091183 0.55558783 9.32022069 3.14645018 13.8125 5.6875 C14.58142578 6.10966797 15.35035156 6.53183594 16.14257812 6.96679688 C21.42500554 9.92228158 26.24927567 13.25225152 31 17 C28 17 28 17 25 16 C25.495 16.45375 25.99 16.9075 26.5 17.375 C28 19 28 19 28 21 C23.56541027 19.6062718 21.12621626 17.39417765 18 14 C18.33 13.01 18.66 12.02 19 11 C18.195625 10.855625 17.39125 10.71125 16.5625 10.5625 C14 10 14 10 13 9 C10.94603274 9.40929986 10.94603274 9.40929986 9 10 C8.34 8.68 7.68 7.36 7 6 C7.33 5.67 7.66 5.34 8 5 C5.36 3.68 2.72 2.36 0 1 C0 0.67 0 0.34 0 0 Z " fill="#6F6F71" transform="translate(227,20)"/>
<path d="M0 0 C1.32 0.33 2.64 0.66 4 1 C-1.94 6.94 -7.88 12.88 -14 19 C-14.33 17.68 -14.66 16.36 -15 15 C-13.80004883 13.15307617 -13.80004883 13.15307617 -11.95703125 11.29296875 C-10.96413086 10.29040039 -10.96413086 10.29040039 -9.95117188 9.26757812 C-9.24541016 8.58115234 -8.53964844 7.89472656 -7.8125 7.1875 C-7.12607422 6.48173828 -6.43964844 5.77597656 -5.73242188 5.04882812 C-4.72985352 4.05592773 -4.72985352 4.05592773 -3.70703125 3.04296875 C-3.0931958 2.43477295 -2.47936035 1.82657715 -1.84692383 1.19995117 C-1.23743896 0.80396729 -0.6279541 0.4079834 0 0 Z " fill="#626262" transform="translate(57,45)"/>
<path d="M0 0 C6.66730383 4.36211899 11.267303 9.63099818 16 16 C15.67 16.66 15.34 17.32 15 18 C14.01 17.67 13.02 17.34 12 17 C10.8125 14.4375 10.8125 14.4375 10 12 C8.68 12.33 7.36 12.66 6 13 C6 12.34 6 11.68 6 11 C5.34 11 4.68 11 4 11 C3.34 9.68 2.68 8.36 2 7 C2.66 7 3.32 7 4 7 C3.01 5.824375 3.01 5.824375 2 4.625 C0 2 0 2 0 0 Z " fill="#353538" transform="translate(280,60)"/>
<path d="M0 0 C2.9667903 2.57360122 4.49144778 5.51704221 6.25 9 C6.79140625 10.051875 7.3328125 11.10375 7.890625 12.1875 C9 15 9 15 8 18 C7.67 17.01 7.34 16.02 7 15 C6.34 15 5.68 15 5 15 C4.67 14.34 4.34 13.68 4 13 C3.34 13.66 2.68 14.32 2 15 C1.34 13.02 0.68 11.04 0 9 C1.32 9 2.64 9 4 9 C4 8.34 4 7.68 4 7 C2.35 7 0.7 7 -1 7 C-1.33 6.01 -1.66 5.02 -2 4 C-1.34 4 -0.68 4 0 4 C0 2.68 0 1.36 0 0 Z " fill="#777779" transform="translate(300,85)"/>
<path d="M0 0 C3.43939805 1.71969903 3.92825424 5.78573597 5.125 9.25 C5.40214844 10.01441406 5.67929687 10.77882813 5.96484375 11.56640625 C7.3384793 15.48431256 8.38774232 18.78540953 8 23 C6.35 23.33 4.7 23.66 3 24 C3 22.02 3 20.04 3 18 C3.66 18 4.32 18 5 18 C4.01 14.7 3.02 11.4 2 8 C1.01 8.33 0.02 8.66 -1 9 C-0.67 6.03 -0.34 3.06 0 0 Z " fill="#636364" transform="translate(309,103)"/>
<path d="M0 0 C-0.33 0.99 -0.66 1.98 -1 3 C-4.2735426 4.13314936 -7.46421025 4.90681917 -10.875 5.5 C-11.57625 5.665 -12.2775 5.83 -13 6 C-13.33 6.66 -13.66 7.32 -14 8 C-16.31 7.67 -18.62 7.34 -21 7 C-20 5 -20 5 -16.54296875 3.7109375 C-15.09363077 3.25760271 -13.64165256 2.81264522 -12.1875 2.375 C-11.46240234 2.14554688 -10.73730469 1.91609375 -9.99023438 1.6796875 C-6.48303394 0.60153622 -3.69863288 0 0 0 Z " fill="#5B5A5B" transform="translate(125,11)"/>
<path d="M0 0 C1.32 0 2.64 0 4 0 C4 0.66 4 1.32 4 2 C4.66 2 5.32 2 6 2 C6 2.66 6 3.32 6 4 C7.65 4.33 9.3 4.66 11 5 C11.103125 5.598125 11.20625 6.19625 11.3125 6.8125 C12.09385053 9.29861534 13.14895416 10.22943442 15 12 C15 12.66 15 13.32 15 14 C10.52972561 12.60502076 8.29284615 10.51254724 5.25 7 C4.47140625 6.113125 3.6928125 5.22625 2.890625 4.3125 C1 2 1 2 0 0 Z " fill="#36363A" transform="translate(269,53)"/>
<path d="M0 0 C0.99 0.495 0.99 0.495 2 1 C2 1.66 2 2.32 2 3 C2.66 3 3.32 3 4 3 C6.12149219 5.75008247 7.05194406 7.23815374 6.8125 10.75 C6 13 6 13 4 14 C-0.59225513 4.58997722 -0.59225513 4.58997722 0 0 Z " fill="#343437" transform="translate(303,97)"/>
<path d="M0 0 C9.33175289 -0.5338079 17.92550815 1.08718365 27 3 C27 3.33 27 3.66 27 4 C24.36 4.66 21.72 5.32 19 6 C18.67 5.34 18.34 4.68 18 4 C15.97536745 3.34786708 15.97536745 3.34786708 14 3 C14 3.66 14 4.32 14 5 C13.34 5 12.68 5 12 5 C12 4.01 12 3.02 12 2 C8.04 1.67 4.08 1.34 0 1 C0 0.67 0 0.34 0 0 Z " fill="#7B7B7C" transform="translate(173,7)"/>
<path d="M0 0 C4.14298667 0.59834725 7.18194377 2.00664285 10.8125 4.0625 C11.78832031 4.61035156 12.76414063 5.15820312 13.76953125 5.72265625 C14.50558594 6.14417969 15.24164063 6.56570312 16 7 C15.67 7.99 15.34 8.98 15 10 C14.67 9.34 14.34 8.68 14 8 C13.67 8.66 13.34 9.32 13 10 C11.35 9.67 9.7 9.34 8 9 C8 7.68 8 6.36 8 5 C5.36 3.68 2.72 2.36 0 1 C0 0.67 0 0.34 0 0 Z " fill="#808081" transform="translate(227,20)"/>
<path d="M0 0 C0 0.66 0 1.32 0 2 C-3.11812941 3.70043413 -6.24550253 5.38309295 -9.375 7.0625 C-10.70917969 7.79049805 -10.70917969 7.79049805 -12.0703125 8.53320312 C-12.92109375 8.98759766 -13.771875 9.44199219 -14.6484375 9.91015625 C-15.43395996 10.33433838 -16.21948242 10.75852051 -17.02880859 11.19555664 C-18.00454834 11.5937561 -18.00454834 11.5937561 -19 12 C-19.66 11.67 -20.32 11.34 -21 11 C-15.375 6 -15.375 6 -12 6 C-12 5.34 -12 4.68 -12 4 C-10.3767313 3.3291288 -8.75132422 2.66342971 -7.125 2 C-6.22007813 1.62875 -5.31515625 1.2575 -4.3828125 0.875 C-2 0 -2 0 0 0 Z " fill="#0F0E0F" transform="translate(102,20)"/>
<path d="M0 0 C0 0.66 0 1.32 0 2 C-1.79036458 2.94401042 -3.58072917 3.88802083 -5.37109375 4.83203125 C-7.32267987 5.99019799 -7.32267987 5.99019799 -8 9 C-10.0625 10.1875 -10.0625 10.1875 -12 11 C-12 10.34 -12 9.68 -12 9 C-13.98 9.66 -15.96 10.32 -18 11 C-14.95124073 7.67140292 -11.78089042 5.49564707 -7.875 3.25 C-6.82054688 2.63640625 -5.76609375 2.0228125 -4.6796875 1.390625 C-2 0 -2 0 0 0 Z " fill="#797979" transform="translate(90,24)"/>
<path d="M0 0 C0.625 1.8125 0.625 1.8125 1 4 C0.01 5.485 0.01 5.485 -1 7 C-1.66 7 -2.32 7 -3 7 C-3 7.66 -3 8.32 -3 9 C-4.96147874 10.38938077 -6.96166576 11.7260411 -9 13 C-8.51286902 8.58489226 -7.14946803 6.69553355 -3.9375 3.6875 C-3.20402344 2.99011719 -2.47054688 2.29273438 -1.71484375 1.57421875 C-1.14894531 1.05472656 -0.58304687 0.53523438 0 0 Z " fill="#484645" transform="translate(277,272)"/>
<path d="M0 0 C1.32 0.33 2.64 0.66 4 1 C3.67 7.27 3.34 13.54 3 20 C2.34 20 1.68 20 1 20 C0.67 13.4 0.34 6.8 0 0 Z " fill="#252527" transform="translate(316,146)"/>
<path d="M0 0 C2 1 2 1 3.125 3.25 C4.00513321 6.01613295 4.1645438 8.12048351 4 11 C3.34 11 2.68 11 2 11 C1.67 11.99 1.34 12.98 1 14 C0.01 10.04 -0.98 6.08 -2 2 C-1.34 2 -0.68 2 0 2 C0 1.34 0 0.68 0 0 Z " fill="#303033" transform="translate(310,110)"/>
<path d="M0 0 C4.875 2.75 4.875 2.75 6 5 C6.66 5.33 7.32 5.66 8 6 C8 7.65 8 9.3 8 11 C3.91110799 8.77777608 2.2588343 7.70591174 0.625 3.25 C0.41875 2.1775 0.2125 1.105 0 0 Z " fill="#333336" transform="translate(261,42)"/>
<path d="M0 0 C3.15330554 0.60694155 5.18888867 1.6416665 7.75 3.5625 C8.67039062 4.24505859 8.67039062 4.24505859 9.609375 4.94140625 C10.29773438 5.46541016 10.29773438 5.46541016 11 6 C10.34 6.66 9.68 7.32 9 8 C9.99 9.485 9.99 9.485 11 11 C6.76730422 9.48832294 5.33731903 6.69447201 3 3 C1.37648891 1.20605554 1.37648891 1.20605554 0 0 Z " fill="#323235" transform="translate(249,34)"/>
<path d="M0 0 C5.95507399 0.3916035 10.62819824 1.37124595 16 4 C13.52552048 5.23723976 11.7446651 5 9 5 C8.01 5.33 7.02 5.66 6 6 C5.67 4.68 5.34 3.36 5 2 C3.35 1.67 1.7 1.34 0 1 C0 0.67 0 0.34 0 0 Z " fill="#818182" transform="translate(200,11)"/>
<path d="M0 0 C2.35171131 0.59861742 4.6859378 1.26924352 7 2 C7.33 2.66 7.66 3.32 8 4 C7.34 4 6.68 4 6 4 C6.33 4.99 6.66 5.98 7 7 C3.62496331 5.8141763 1.35277269 4.72426311 -1 2 C-0.67 1.34 -0.34 0.68 0 0 Z " fill="#2E2E31" transform="translate(239,28)"/>
<path d="M0 0 C2.91316254 1.45658127 3.09207774 3.36160014 4.1875 6.375 C4.55230469 7.35210937 4.91710937 8.32921875 5.29296875 9.3359375 C6 12 6 12 5 15 C4.01 12.69 3.02 10.38 2 8 C1.01 8.33 0.02 8.66 -1 9 C-0.67 6.03 -0.34 3.06 0 0 Z " fill="#A9A9A9" transform="translate(309,103)"/>
<path d="M0 0 C2.625 -0.1875 2.625 -0.1875 5 0 C5.66 1.98 6.32 3.96 7 6 C4.03 5.01 1.06 4.02 -2 3 C-1.34 2.01 -0.68 1.02 0 0 Z " fill="#2B2B2D" transform="translate(220,19)"/>
<path d="M0 0 C0.66 0.33 1.32 0.66 2 1 C0.6875 3.9375 0.6875 3.9375 -1 7 C-1.99 7.33 -2.98 7.66 -4 8 C-3.6875 5.125 -3.6875 5.125 -3 2 C-2.01 1.34 -1.02 0.68 0 0 Z " fill="#100F0F" transform="translate(20,100)"/>
<path d="M0 0 C0.99 0 1.98 0 3 0 C2.67 2.97 2.34 5.94 2 9 C0.4375 7.3125 0.4375 7.3125 -1 5 C-0.6875 2.25 -0.6875 2.25 0 0 Z " fill="#333335" transform="translate(314,126)"/>
<path d="M0 0 C0.66 0.33 1.32 0.66 2 1 C2 1.66 2 2.32 2 3 C2.66 3 3.32 3 4 3 C4 4.32 4 5.64 4 7 C3.01 7.33 2.02 7.66 1 8 C0.26919734 6.02253397 -0.39421747 4.01927511 -1 2 C-0.67 1.34 -0.34 0.68 0 0 Z " fill="#353539" transform="translate(296,82)"/>
<path d="M0 0 C1.48117801 0.28127421 2.95993249 0.57533732 4.4375 0.875 C5.67306641 1.11863281 5.67306641 1.11863281 6.93359375 1.3671875 C7.61550781 1.57601563 8.29742187 1.78484375 9 2 C9.33 2.66 9.66 3.32 10 4 C9.071875 3.979375 8.14375 3.95875 7.1875 3.9375 C3.97713989 3.84230396 3.97713989 3.84230396 1 5 C0.67 3.35 0.34 1.7 0 0 Z " fill="#848485" transform="translate(217,16)"/>
<path d="M0 0 C-1.5625 2.0625 -1.5625 2.0625 -4 4 C-7.75 3.75 -7.75 3.75 -11 3 C-10 1 -10 1 -7.1875 -0.1875 C-4.14038924 -0.96421451 -2.86250637 -1.10096399 0 0 Z " fill="#727272" transform="translate(115,15)"/>
<path d="M0 0 C2.50037734 2.17424117 3.43628586 3.73045798 4 7 C3.34 7 2.68 7 2 7 C1.67 6.34 1.34 5.68 1 5 C0.01 5.33 -0.98 5.66 -2 6 C-1.49396008 3.83125748 -1.00016187 2.00032373 0 0 Z " fill="#838385" transform="translate(296,78)"/>
<path d="M0 0 C0.99 0.66 1.98 1.32 3 2 C2.67 2.99 2.34 3.98 2 5 C1.01 5 0.02 5 -1 5 C-1.33 3.68 -1.66 2.36 -2 1 C-1.34 0.67 -0.68 0.34 0 0 Z " fill="#353538" transform="translate(289,71)"/>
<path d="M0 0 C0.99 0 1.98 0 3 0 C1.9024777 2.99324263 1.32317108 3.84610901 -1.625 5.25 C-2.40875 5.4975 -3.1925 5.745 -4 6 C-2.1875 3 -2.1875 3 0 0 Z " fill="#0F0E0E" transform="translate(75,33)"/>
<path d="M0 0 C2.5 2.3125 2.5 2.3125 5 5 C5 5.99 5 6.98 5 8 C4.01 7.67 3.02 7.34 2 7 C0.8125 3.4375 0.8125 3.4375 0 0 Z " fill="#B1B0B1" transform="translate(290,70)"/>
<path d="M0 0 C1.98 0.99 1.98 0.99 4 2 C3.67 3.32 3.34 4.64 3 6 C2.34 6 1.68 6 1 6 C0.67 4.02 0.34 2.04 0 0 Z " fill="#6E6E70" transform="translate(286,66)"/>
<path d="M0 0 C2.71224618 1.61268692 5.37352812 3.24901874 8 5 C7.67 5.66 7.34 6.32 7 7 C5.0625 6.6875 5.0625 6.6875 3 6 C2.67 5.01 2.34 4.02 2 3 C1.34 2.67 0.68 2.34 0 2 C0 1.34 0 0.68 0 0 Z " fill="#A9A8A9" transform="translate(262,41)"/>
</svg>
